<?xml version="1.0" encoding="UTF-8"?>
<svg id="Layer_1" xmlns="http://www.w3.org/2000/svg" version="1.1" viewBox="0 0 386.2 378">
  <!-- Generator: Adobe Illustrator 29.2.1, SVG Export Plug-In . SVG Version: 2.1.0 Build 116)  -->
  <defs>
    <style>
      .st0 {
        fill: #0f9e99;
      }
    </style>
  </defs>
  <path class="st0" d="M181.4,204.2c2.9,3.3,4.7,6.8,5.5,10.7.7,3.9,1.1,7.2,1.1,10.1h3.4s6.9,0,6.9,0c0-2.9.4-6.3,1.1-10.1.7-3.9,2.5-7.4,5.5-10.7,2.9-3.3,7.3-6,13.1-8.3,5.8-2.3,13.8-3.4,24-3.4h16.4v-6.9h-16.4c-10.2,0-18.2-1.1-24-3.4-5.8-2.3-10.2-5.1-13.1-8.3-2.9-3.3-4.7-6.8-5.5-10.7-.7-3.9-1.1-7.2-1.1-10.1h-3.4s-6.9,0-6.9,0c0,2.9-.4,6.3-1.1,10.1-.7,3.9-2.5,7.4-5.5,10.7-2.9,3.3-7.3,6-13.1,8.3-5.8,2.3-13.8,3.4-24,3.4h-16.4v6.9h16.4c10.2,0,18.2,1.1,24,3.4,5.8,2.3,10.2,5.1,13.1,8.3Z"/>
  <path class="st0" d="M116,75.5h42.9c11.6,0,21.1,2.2,28.5,6.7,7.4,4.5,13.2,9.7,17.4,15.7,4.2,6,7.1,12.1,8.7,18.1,1.6,6,2.4,10.5,2.4,13.4h7.3v-60.4H65.5v239.9h50.5v-119.8h0v-6.9h0v-106.8Z"/>
  <path class="st0" d="M270.2,69v119.8h0v6.9h0v106.8h-42.9c-11.6,0-21.1-2.2-28.5-6.7-7.4-4.5-13.2-9.7-17.4-15.7-4.2-6-7.1-12.1-8.7-18.1-1.6-6-2.4-10.5-2.4-13.4h-7.3v60.4h157.7V69h-50.5Z"/>
</svg>