<?xml version="1.0" encoding="UTF-8" standalone="no"?>
<svg
   version="1.1"
   id="Layer_1"
   x="0px"
   y="0px"
   width="23.878"
   viewBox="0 0 23.878 32.000546"
   enable-background="new 0 0 1024 1024"
   xml:space="preserve"
   sodipodi:docname="logo.svg"
   height="32.000546"
   inkscape:version="1.4 (e7c3feb1, 2024-10-09)"
   xmlns:inkscape="http://www.inkscape.org/namespaces/inkscape"
   xmlns:sodipodi="http://sodipodi.sourceforge.net/DTD/sodipodi-0.dtd"
   xmlns="http://www.w3.org/2000/svg"
   xmlns:svg="http://www.w3.org/2000/svg"><defs
   id="defs3" /><sodipodi:namedview
   id="namedview3"
   pagecolor="#ffffff"
   bordercolor="#000000"
   borderopacity="0.25"
   inkscape:showpageshadow="2"
   inkscape:pageopacity="0.0"
   inkscape:pagecheckerboard="0"
   inkscape:deskcolor="#d1d1d1"
   inkscape:zoom="12.828125"
   inkscape:cx="19.09866"
   inkscape:cy="11.65408"
   inkscape:window-width="1712"
   inkscape:window-height="908"
   inkscape:window-x="0"
   inkscape:window-y="43"
   inkscape:window-maximized="1"
   inkscape:current-layer="Layer_1" />
<path
   fill="#000000"
   opacity="1"
   stroke="none"
   d="M 3.4423312,2.0665249 C 4.8878371,1.1967664 6.4134249,0.55451083 8.039246,0.15434545 8.2568872,0.10077681 8.4784572,0.06311957 8.6959412,0.0089855 8.7810936,-0.01220981 8.8399029,0.00251458 8.8926847,0.07007584 9.385148,0.7004356 9.878575,1.3300428 10.370704,1.9606628 c 0.01369,0.017538 0.016,0.043954 0.03197,0.090662 C 10.115759,2.0955378 9.8410445,2.1357456 9.5670636,2.1804415 7.9663624,2.4415716 6.4664081,2.9882139 5.0552297,3.7822246 4.3786634,4.1629011 3.7400192,4.6002396 3.1318877,5.0835099 2.9929764,5.1939014 2.9886931,5.2682482 3.1141754,5.3907251 3.5256693,5.7923601 3.9327169,6.1987935 4.3321795,6.6123615 4.4474632,6.7317152 4.5260314,6.7375712 4.6580551,6.6343878 5.8790813,5.680092 7.2389155,4.9943292 8.7302633,4.5763461 9.4641097,4.3706688 10.213321,4.245249 10.975415,4.1861768 c 0.681301,-0.05281 1.361614,-0.055835 2.039179,0.010294 1.040889,0.1015863 2.056998,0.3220342 3.039546,0.6923878 1.143947,0.4311895 2.193482,1.0261701 3.159485,1.7723071 0.06481,0.050059 0.124928,0.109563 0.209623,0.025364 0.4781,-0.4753183 0.957792,-0.949038 1.462809,-1.4489102 C 18.69567,3.4363684 16.223088,2.379684 13.447685,2.0568944 c -0.02629,-0.090765 0.02564,-0.1261504 0.05851,-0.1686303 0.45907,-0.5931094 0.919813,-1.18492849 1.376866,-1.77958579 0.06828,-0.08884104 0.133353,-0.12347412 0.253084,-0.09872785 2.728641,0.56395696 5.160304,1.73701614 7.290773,3.53484634 0.47376,0.399788 0.911963,0.8356123 1.349367,1.2734293 0.112362,0.1124688 0.112035,0.1925115 0.01656,0.3157063 -1.205705,1.5558586 -2.406985,3.1151488 -3.609086,4.6738002 -0.129755,0.1682395 -0.260541,0.3358224 -0.385142,0.5078424 -0.07471,0.103144 -0.129663,0.112528 -0.21123,0.0021 -1.037969,-1.4052233 -2.368662,-2.4414105 -3.96993,-3.1329143 -0.70851,-0.3059692 -1.449715,-0.500835 -2.208259,-0.6337964 -0.143243,-0.025109 -0.214604,0.037408 -0.214845,0.1817917 -10e-4,0.6063514 3.38e-4,1.2127205 -0.0042,1.8190434 -9.71e-4,0.129118 0.0615,0.1649006 0.176866,0.1898011 1.134004,0.2447423 2.172072,0.700671 3.088716,1.4199485 0.700388,0.54958 1.286593,1.200774 1.75511,1.958319 0.05606,0.09064 0.06613,0.165997 -0.0032,0.255454 -0.45547,0.587783 -0.907887,1.17793 -1.361648,1.76704 -0.03007,0.03904 -0.05731,0.08319 -0.121987,0.08999 -0.910644,-2.065714 -2.463072,-3.29613 -4.750902,-3.321878 C 9.6846817,10.884718 8.106056,12.082699 7.1421347,14.141217 6.9862554,14.030269 6.901046,13.875256 6.795089,13.741118 6.4231881,13.270302 6.0603783,12.792295 5.687452,12.322307 5.6023375,12.215041 5.6060268,12.134674 5.6786932,12.02314 6.7976286,10.305731 8.3611898,9.2287348 10.353515,8.7665322 c 0.287076,-0.0666 0.284463,-0.06474 0.287672,-0.3537926 0.006,-0.5435682 -0.01816,-1.0873401 0.01367,-1.630774 0.01006,-0.1718369 -0.0848,-0.252548 -0.256834,-0.2230276 C 8.0507151,6.9617323 6.1103396,8.0753521 4.5751349,9.8954295 4.4584045,10.03382 4.3460119,10.175868 4.2307833,10.315538 c -0.00717,0.0087 -0.021545,0.01145 -0.033842,0.0176 -0.068715,0.0027 -0.091903,-0.05638 -0.1246662,-0.09863 C 2.731864,8.5058964 1.3927921,6.7762445 0.05089101,5.0487898 -0.0219416,4.9550317 -0.01567558,4.8921503 0.06425121,4.8082563 0.97793305,3.8492225 1.9850253,3.0032342 3.0999357,2.286744 3.2102609,2.2158445 3.3205021,2.144816 3.4423331,2.0665242 Z"
   id="path1"
   style="stroke-width:0.0375076;fill:#000000;fill-opacity:1" />
<path
   fill="#000000"
   opacity="1"
   stroke="none"
   d="m 16.422169,29.261373 c 1.571587,-0.52723 2.978756,-1.32309 4.261031,-2.345016 0.167511,-0.133502 0.170258,-0.173807 0.02025,-0.32557 -0.404259,-0.408983 -0.814048,-0.812526 -1.216279,-1.223477 -0.102567,-0.10479 -0.182563,-0.115215 -0.301627,-0.0216 -1.162414,0.913966 -2.456786,1.576832 -3.869682,2.007842 -0.688215,0.209939 -1.393094,0.337717 -2.108073,0.421352 -0.466499,0.05456 -0.932521,0.07483 -1.40094,0.07073 -1.61274,-0.0141 -3.157671,-0.342555 -4.6354857,-0.990442 -0.8803031,-0.385936 -1.699851,-0.87215 -2.4605667,-1.458938 -0.1919024,-0.14803 -0.2431846,-0.145914 -0.4137991,0.02412 -0.3940506,0.392721 -0.7803393,0.793403 -1.1808502,1.179367 -0.1354946,0.130574 -0.1045456,0.204744 0.022388,0.306953 0.8212109,0.66126 1.7052138,1.221657 2.6502853,1.689545 1.0244132,0.50717 2.0993053,0.867262 3.2113078,1.117593 0.3585436,0.08072 0.7268422,0.118166 1.0907556,0.174919 0.06597,0.01029 0.139611,-0.0028 0.19919,0.08194 -0.4894617,0.671877 -1.0349837,1.31057 -1.5296266,2.025318 C 8.3025316,31.902416 7.8073501,31.783442 7.3183971,31.639298 5.3292474,31.052885 3.5210953,30.113611 1.8864898,28.839942 1.2497487,28.343799 0.65632911,27.798795 0.09292239,27.220392 -0.02015811,27.1043 -0.03037368,27.022188 0.07363186,26.888251 1.4036914,25.175404 2.7277985,23.457935 4.0535705,21.741757 c 0.033701,-0.04362 0.062296,-0.09379 0.1368464,-0.114712 0.159737,0.193667 0.317315,0.393553 0.4840527,0.585482 1.3657566,1.572081 3.0550057,2.613867 5.0851797,3.094584 0.2183403,0.0517 0.4371287,0.100987 0.6611507,0.123566 0.142485,0.01436 0.217259,-0.04988 0.217807,-0.18892 0.0023,-0.593808 0.0016,-1.187629 6.23e-4,-1.781446 -2.63e-4,-0.168042 -0.132869,-0.1983 -0.254768,-0.224411 C 9.9064596,23.133514 9.4457097,22.979619 8.9972704,22.786784 7.5879772,22.180779 6.4874588,21.213562 5.6549228,19.932052 c -0.056142,-0.08642 -0.078066,-0.161845 -0.00555,-0.254671 0.4539922,-0.581157 0.9044242,-1.165095 1.3559177,-1.748205 0.030272,-0.0391 0.059576,-0.07895 0.1097569,-0.145553 0.9509929,2.086326 2.5135913,3.298667 4.7889496,3.300254 2.276899,0.0016 3.849071,-1.198059 4.785707,-3.248724 0.09102,-8.74e-4 0.116858,0.07295 0.156799,0.123967 0.435323,0.556089 0.866081,1.115786 1.305257,1.668803 0.08735,0.109994 0.0989,0.190157 0.01915,0.312458 -1.129421,1.732287 -2.698222,2.833015 -4.716015,3.287016 -0.192869,0.04339 -0.26923,0.125837 -0.264786,0.328899 0.01177,0.537329 0.0017,1.075108 0.0035,1.612698 8.74e-4,0.254195 0.03526,0.290863 0.284668,0.250592 0.836467,-0.135061 1.640112,-0.381699 2.408933,-0.738461 1.474682,-0.684302 2.70241,-1.674927 3.680551,-2.974129 0.02595,-0.03447 0.04838,-0.07417 0.09988,-0.08372 0.07664,0.01 0.10454,0.07945 0.145591,0.131915 1.309407,1.673444 2.618132,3.347422 3.927349,5.021012 0.186669,0.238619 0.186284,0.23666 -0.02356,0.456588 -1.404364,1.471864 -3.025963,2.643187 -4.863783,3.514844 -1.213046,0.575333 -2.479088,0.991074 -3.79612,1.251381 -0.01701,0.0034 -0.03588,-0.0027 -0.07267,-0.0061 0.0519,-0.127872 -0.02918,-0.209593 -0.09673,-0.296146 -0.392195,-0.502552 -0.785109,-1.004539 -1.176599,-1.507638 -0.05631,-0.07236 -0.122655,-0.139861 -0.164121,-0.273594 0.987742,-0.112972 1.937829,-0.326049 2.875159,-0.654172 z"
   id="path2"
   style="stroke-width:0.0375076;fill:#000000;fill-opacity:1" />
<path
   fill="#000000"
   opacity="1"
   stroke="none"
   d="M 10.471144,18.55238 C 9.3862901,17.922896 8.8190029,16.727356 9.0180733,15.508294 c 0.1920681,-1.176183 1.0862957,-2.12369 2.2628947,-2.378435 1.687774,-0.36542 3.304932,0.773987 3.540828,2.461544 0.217533,1.556187 -0.857292,3.109291 -2.550587,3.319353 -0.628471,0.07796 -1.230148,-0.04045 -1.800065,-0.358376 m 2.129962,-1.33941 c 0.04684,-0.03093 0.09533,-0.05965 0.140272,-0.09314 0.569211,-0.424101 0.75253,-1.183767 0.431635,-1.785626 -0.337796,-0.633559 -1.069963,-0.921724 -1.738538,-0.684256 -0.635243,0.225629 -1.040749,0.954888 -0.915493,1.582584 0.164184,0.822783 1.100524,1.48801 2.082124,0.980433 z"
   id="path3"
   style="stroke-width:0.0375076;fill:#000000;fill-opacity:1" />
</svg>